ISO-10303-21;
HEADER;
/* Generated by software containing ST-Developer
 * from STEP Tools, Inc. (www.steptools.com) 
 */
/* OPTION: using custom renumber hook */

FILE_DESCRIPTION(
/* description */ ('STEP AP242 Edition 2',
'CAx-IF Rec.Pracs.---Representation and Presentation of Product Manufa
cturing Information (PMI)---4.0---2014-10-13',
'CAx-IF Rec.Pracs.---3D Tessellated Geometry---0.4---2014-09-14','2;1',
'CAx-IF Rec.Pracs.---User Defined Attributes---1.5---2016-08-15'),
/* implementation_level */ '2;1');

FILE_NAME(
/* name */ 'Assembly 1',
/* time_stamp */ '2026-05-05T17:25:40Z',
/* author */ (''),
/* organization */ (''),
/* preprocessor_version */ 'ST-DEVELOPER v20',
/* originating_system */ 'ONSHAPE BY PTC INC, 1.214',
/* authorisation */ '  ');

FILE_SCHEMA (('AP242_MANAGED_MODEL_BASED_3D_ENGINEERING_MIM_LF { 1 0 10303 442 3 1 4 }'));
ENDSEC;

DATA;
#10=ADVANCED_BREP_SHAPE_REPRESENTATION('',(#104),#380);
#11=ORIENTED_EDGE('',*,*,#35,.F.);
#12=ORIENTED_EDGE('',*,*,#36,.F.);
#13=ORIENTED_EDGE('',*,*,#37,.T.);
#14=ORIENTED_EDGE('',*,*,#38,.T.);
#15=ORIENTED_EDGE('',*,*,#39,.T.);
#16=ORIENTED_EDGE('',*,*,#40,.F.);
#17=ORIENTED_EDGE('',*,*,#41,.F.);
#18=ORIENTED_EDGE('',*,*,#36,.T.);
#19=ORIENTED_EDGE('',*,*,#42,.T.);
#20=ORIENTED_EDGE('',*,*,#43,.F.);
#21=ORIENTED_EDGE('',*,*,#44,.F.);
#22=ORIENTED_EDGE('',*,*,#40,.T.);
#23=ORIENTED_EDGE('',*,*,#45,.F.);
#24=ORIENTED_EDGE('',*,*,#38,.F.);
#25=ORIENTED_EDGE('',*,*,#46,.T.);
#26=ORIENTED_EDGE('',*,*,#43,.T.);
#27=ORIENTED_EDGE('',*,*,#37,.F.);
#28=ORIENTED_EDGE('',*,*,#41,.T.);
#29=ORIENTED_EDGE('',*,*,#44,.T.);
#30=ORIENTED_EDGE('',*,*,#46,.F.);
#31=ORIENTED_EDGE('',*,*,#35,.T.);
#32=ORIENTED_EDGE('',*,*,#45,.T.);
#33=ORIENTED_EDGE('',*,*,#42,.F.);
#34=ORIENTED_EDGE('',*,*,#39,.F.);
#35=EDGE_CURVE('',#47,#48,#55,.T.);
#36=EDGE_CURVE('',#49,#47,#56,.T.);
#37=EDGE_CURVE('',#49,#50,#57,.T.);
#38=EDGE_CURVE('',#50,#48,#58,.T.);
#39=EDGE_CURVE('',#47,#51,#59,.T.);
#40=EDGE_CURVE('',#52,#51,#60,.T.);
#41=EDGE_CURVE('',#49,#52,#61,.T.);
#42=EDGE_CURVE('',#51,#53,#62,.T.);
#43=EDGE_CURVE('',#54,#53,#63,.T.);
#44=EDGE_CURVE('',#52,#54,#64,.T.);
#45=EDGE_CURVE('',#48,#53,#65,.T.);
#46=EDGE_CURVE('',#50,#54,#66,.T.);
#47=VERTEX_POINT('',#348);
#48=VERTEX_POINT('',#349);
#49=VERTEX_POINT('',#351);
#50=VERTEX_POINT('',#353);
#51=VERTEX_POINT('',#357);
#52=VERTEX_POINT('',#359);
#53=VERTEX_POINT('',#363);
#54=VERTEX_POINT('',#365);
#55=LINE('',#347,#67);
#56=LINE('',#350,#68);
#57=LINE('',#352,#69);
#58=LINE('',#354,#70);
#59=LINE('',#356,#71);
#60=LINE('',#358,#72);
#61=LINE('',#360,#73);
#62=LINE('',#362,#74);
#63=LINE('',#364,#75);
#64=LINE('',#366,#76);
#65=LINE('',#368,#77);
#66=LINE('',#369,#78);
#67=VECTOR('',#297,1.);
#68=VECTOR('',#298,1.);
#69=VECTOR('',#299,1.);
#70=VECTOR('',#300,1.);
#71=VECTOR('',#303,1.);
#72=VECTOR('',#304,1.);
#73=VECTOR('',#305,1.);
#74=VECTOR('',#308,1.);
#75=VECTOR('',#309,1.);
#76=VECTOR('',#310,1.);
#77=VECTOR('',#313,1.);
#78=VECTOR('',#314,1.);
#79=EDGE_LOOP('',(#11,#12,#13,#14));
#80=EDGE_LOOP('',(#15,#16,#17,#18));
#81=EDGE_LOOP('',(#19,#20,#21,#22));
#82=EDGE_LOOP('',(#23,#24,#25,#26));
#83=EDGE_LOOP('',(#27,#28,#29,#30));
#84=EDGE_LOOP('',(#31,#32,#33,#34));
#85=FACE_BOUND('',#79,.T.);
#86=FACE_BOUND('',#80,.T.);
#87=FACE_BOUND('',#81,.T.);
#88=FACE_BOUND('',#82,.T.);
#89=FACE_BOUND('',#83,.T.);
#90=FACE_BOUND('',#84,.T.);
#91=PLANE('',#247);
#92=PLANE('',#248);
#93=PLANE('',#249);
#94=PLANE('',#250);
#95=PLANE('',#251);
#96=PLANE('',#252);
#97=ADVANCED_FACE('',(#85),#91,.T.);
#98=ADVANCED_FACE('',(#86),#92,.F.);
#99=ADVANCED_FACE('',(#87),#93,.F.);
#100=ADVANCED_FACE('',(#88),#94,.T.);
#101=ADVANCED_FACE('',(#89),#95,.T.);
#102=ADVANCED_FACE('',(#90),#96,.F.);
#103=CLOSED_SHELL('',(#97,#98,#99,#100,#101,#102));
#104=MANIFOLD_SOLID_BREP('Part 1',#103);
#105=CONTEXT_DEPENDENT_SHAPE_REPRESENTATION(#149,#390);
#106=CONTEXT_DEPENDENT_SHAPE_REPRESENTATION(#150,#391);
#107=CONTEXT_DEPENDENT_SHAPE_REPRESENTATION(#151,#392);
#108=CONTEXT_DEPENDENT_SHAPE_REPRESENTATION(#152,#394);
#109=CONTEXT_DEPENDENT_SHAPE_REPRESENTATION(#153,#395);
#110=CONTEXT_DEPENDENT_SHAPE_REPRESENTATION(#154,#396);
#111=CONTEXT_DEPENDENT_SHAPE_REPRESENTATION(#155,#397);
#112=CONTEXT_DEPENDENT_SHAPE_REPRESENTATION(#156,#398);
#113=CONTEXT_DEPENDENT_SHAPE_REPRESENTATION(#157,#399);
#114=CONTEXT_DEPENDENT_SHAPE_REPRESENTATION(#158,#400);
#115=CONTEXT_DEPENDENT_SHAPE_REPRESENTATION(#159,#401);
#116=CONTEXT_DEPENDENT_SHAPE_REPRESENTATION(#160,#402);
#117=CONTEXT_DEPENDENT_SHAPE_REPRESENTATION(#161,#403);
#118=CONTEXT_DEPENDENT_SHAPE_REPRESENTATION(#162,#404);
#119=CONTEXT_DEPENDENT_SHAPE_REPRESENTATION(#163,#405);
#120=CONTEXT_DEPENDENT_SHAPE_REPRESENTATION(#164,#406);
#121=CONTEXT_DEPENDENT_SHAPE_REPRESENTATION(#165,#407);
#122=CONTEXT_DEPENDENT_SHAPE_REPRESENTATION(#166,#408);
#123=CONTEXT_DEPENDENT_SHAPE_REPRESENTATION(#167,#410);
#124=CONTEXT_DEPENDENT_SHAPE_REPRESENTATION(#168,#411);
#125=CONTEXT_DEPENDENT_SHAPE_REPRESENTATION(#169,#412);
#126=CONTEXT_DEPENDENT_SHAPE_REPRESENTATION(#170,#413);
#127=NEXT_ASSEMBLY_USAGE_OCCURRENCE('NAUO1','Part 1','Part 1',#414,#415,
'');
#128=NEXT_ASSEMBLY_USAGE_OCCURRENCE('NAUO2','Part 1','Part 1',#414,#415,
'');
#129=NEXT_ASSEMBLY_USAGE_OCCURRENCE('NAUO3','Part 1','Part 1',#414,#415,
'');
#130=NEXT_ASSEMBLY_USAGE_OCCURRENCE('NAUO4','id15','id15',#414,#416,'');
#131=NEXT_ASSEMBLY_USAGE_OCCURRENCE('NAUO5','Part 1','Part 1',#414,#415,
'');
#132=NEXT_ASSEMBLY_USAGE_OCCURRENCE('NAUO6','Part 1','Part 1',#414,#415,
'');
#133=NEXT_ASSEMBLY_USAGE_OCCURRENCE('NAUO7','Part 1','Part 1',#414,#415,
'');
#134=NEXT_ASSEMBLY_USAGE_OCCURRENCE('NAUO8','Part 1','Part 1',#414,#415,
'');
#135=NEXT_ASSEMBLY_USAGE_OCCURRENCE('NAUO9','Part 1','Part 1',#414,#415,
'');
#136=NEXT_ASSEMBLY_USAGE_OCCURRENCE('NAUO10','Part 1','Part 1',#414,#415,
'');
#137=NEXT_ASSEMBLY_USAGE_OCCURRENCE('NAUO11','Part 1','Part 1',#414,#415,
'');
#138=NEXT_ASSEMBLY_USAGE_OCCURRENCE('NAUO12','Part 1','Part 1',#414,#415,
'');
#139=NEXT_ASSEMBLY_USAGE_OCCURRENCE('NAUO13','Part 1','Part 1',#414,#415,
'');
#140=NEXT_ASSEMBLY_USAGE_OCCURRENCE('NAUO14','Part 1','Part 1',#414,#415,
'');
#141=NEXT_ASSEMBLY_USAGE_OCCURRENCE('NAUO15','Part 1','Part 1',#414,#415,
'');
#142=NEXT_ASSEMBLY_USAGE_OCCURRENCE('NAUO16','Part 1','Part 1',#414,#415,
'');
#143=NEXT_ASSEMBLY_USAGE_OCCURRENCE('NAUO17','Part 1','Part 1',#414,#415,
'');
#144=NEXT_ASSEMBLY_USAGE_OCCURRENCE('NAUO18','Part 1','Part 1',#414,#415,
'');
#145=NEXT_ASSEMBLY_USAGE_OCCURRENCE('NAUO19','Part 1','Part 1',#414,#417,
'');
#146=NEXT_ASSEMBLY_USAGE_OCCURRENCE('NAUO20','Part 1','Part 1',#414,#415,
'');
#147=NEXT_ASSEMBLY_USAGE_OCCURRENCE('NAUO21','Part 1','Part 1',#414,#415,
'');
#148=NEXT_ASSEMBLY_USAGE_OCCURRENCE('NAUO22','Part 1','Part 1',#414,#415,
'');
#149=(
REPRESENTATION_RELATIONSHIP(' ',' ',#225,#224)
REPRESENTATION_RELATIONSHIP_WITH_TRANSFORMATION(#171)
SHAPE_REPRESENTATION_RELATIONSHIP()
);
#150=(
REPRESENTATION_RELATIONSHIP(' ',' ',#225,#224)
REPRESENTATION_RELATIONSHIP_WITH_TRANSFORMATION(#172)
SHAPE_REPRESENTATION_RELATIONSHIP()
);
#151=(
REPRESENTATION_RELATIONSHIP(' ',' ',#225,#224)
REPRESENTATION_RELATIONSHIP_WITH_TRANSFORMATION(#173)
SHAPE_REPRESENTATION_RELATIONSHIP()
);
#152=(
REPRESENTATION_RELATIONSHIP(' ',' ',#226,#224)
REPRESENTATION_RELATIONSHIP_WITH_TRANSFORMATION(#174)
SHAPE_REPRESENTATION_RELATIONSHIP()
);
#153=(
REPRESENTATION_RELATIONSHIP(' ',' ',#225,#224)
REPRESENTATION_RELATIONSHIP_WITH_TRANSFORMATION(#175)
SHAPE_REPRESENTATION_RELATIONSHIP()
);
#154=(
REPRESENTATION_RELATIONSHIP(' ',' ',#225,#224)
REPRESENTATION_RELATIONSHIP_WITH_TRANSFORMATION(#176)
SHAPE_REPRESENTATION_RELATIONSHIP()
);
#155=(
REPRESENTATION_RELATIONSHIP(' ',' ',#225,#224)
REPRESENTATION_RELATIONSHIP_WITH_TRANSFORMATION(#177)
SHAPE_REPRESENTATION_RELATIONSHIP()
);
#156=(
REPRESENTATION_RELATIONSHIP(' ',' ',#225,#224)
REPRESENTATION_RELATIONSHIP_WITH_TRANSFORMATION(#178)
SHAPE_REPRESENTATION_RELATIONSHIP()
);
#157=(
REPRESENTATION_RELATIONSHIP(' ',' ',#225,#224)
REPRESENTATION_RELATIONSHIP_WITH_TRANSFORMATION(#179)
SHAPE_REPRESENTATION_RELATIONSHIP()
);
#158=(
REPRESENTATION_RELATIONSHIP(' ',' ',#225,#224)
REPRESENTATION_RELATIONSHIP_WITH_TRANSFORMATION(#180)
SHAPE_REPRESENTATION_RELATIONSHIP()
);
#159=(
REPRESENTATION_RELATIONSHIP(' ',' ',#225,#224)
REPRESENTATION_RELATIONSHIP_WITH_TRANSFORMATION(#181)
SHAPE_REPRESENTATION_RELATIONSHIP()
);
#160=(
REPRESENTATION_RELATIONSHIP(' ',' ',#225,#224)
REPRESENTATION_RELATIONSHIP_WITH_TRANSFORMATION(#182)
SHAPE_REPRESENTATION_RELATIONSHIP()
);
#161=(
REPRESENTATION_RELATIONSHIP(' ',' ',#225,#224)
REPRESENTATION_RELATIONSHIP_WITH_TRANSFORMATION(#183)
SHAPE_REPRESENTATION_RELATIONSHIP()
);
#162=(
REPRESENTATION_RELATIONSHIP(' ',' ',#225,#224)
REPRESENTATION_RELATIONSHIP_WITH_TRANSFORMATION(#184)
SHAPE_REPRESENTATION_RELATIONSHIP()
);
#163=(
REPRESENTATION_RELATIONSHIP(' ',' ',#225,#224)
REPRESENTATION_RELATIONSHIP_WITH_TRANSFORMATION(#185)
SHAPE_REPRESENTATION_RELATIONSHIP()
);
#164=(
REPRESENTATION_RELATIONSHIP(' ',' ',#225,#224)
REPRESENTATION_RELATIONSHIP_WITH_TRANSFORMATION(#186)
SHAPE_REPRESENTATION_RELATIONSHIP()
);
#165=(
REPRESENTATION_RELATIONSHIP(' ',' ',#225,#224)
REPRESENTATION_RELATIONSHIP_WITH_TRANSFORMATION(#187)
SHAPE_REPRESENTATION_RELATIONSHIP()
);
#166=(
REPRESENTATION_RELATIONSHIP(' ',' ',#225,#224)
REPRESENTATION_RELATIONSHIP_WITH_TRANSFORMATION(#188)
SHAPE_REPRESENTATION_RELATIONSHIP()
);
#167=(
REPRESENTATION_RELATIONSHIP(' ',' ',#227,#224)
REPRESENTATION_RELATIONSHIP_WITH_TRANSFORMATION(#189)
SHAPE_REPRESENTATION_RELATIONSHIP()
);
#168=(
REPRESENTATION_RELATIONSHIP(' ',' ',#225,#224)
REPRESENTATION_RELATIONSHIP_WITH_TRANSFORMATION(#190)
SHAPE_REPRESENTATION_RELATIONSHIP()
);
#169=(
REPRESENTATION_RELATIONSHIP(' ',' ',#225,#224)
REPRESENTATION_RELATIONSHIP_WITH_TRANSFORMATION(#191)
SHAPE_REPRESENTATION_RELATIONSHIP()
);
#170=(
REPRESENTATION_RELATIONSHIP(' ',' ',#225,#224)
REPRESENTATION_RELATIONSHIP_WITH_TRANSFORMATION(#192)
SHAPE_REPRESENTATION_RELATIONSHIP()
);
#171=ITEM_DEFINED_TRANSFORMATION(' ',' ',#228,#229);
#172=ITEM_DEFINED_TRANSFORMATION(' ',' ',#228,#230);
#173=ITEM_DEFINED_TRANSFORMATION(' ',' ',#228,#231);
#174=ITEM_DEFINED_TRANSFORMATION(' ',' ',#228,#232);
#175=ITEM_DEFINED_TRANSFORMATION(' ',' ',#228,#233);
#176=ITEM_DEFINED_TRANSFORMATION(' ',' ',#228,#234);
#177=ITEM_DEFINED_TRANSFORMATION(' ',' ',#228,#235);
#178=ITEM_DEFINED_TRANSFORMATION(' ',' ',#228,#236);
#179=ITEM_DEFINED_TRANSFORMATION(' ',' ',#228,#237);
#180=ITEM_DEFINED_TRANSFORMATION(' ',' ',#228,#238);
#181=ITEM_DEFINED_TRANSFORMATION(' ',' ',#228,#239);
#182=ITEM_DEFINED_TRANSFORMATION(' ',' ',#228,#240);
#183=ITEM_DEFINED_TRANSFORMATION(' ',' ',#228,#241);
#184=ITEM_DEFINED_TRANSFORMATION(' ',' ',#228,#242);
#185=ITEM_DEFINED_TRANSFORMATION(' ',' ',#228,#243);
#186=ITEM_DEFINED_TRANSFORMATION(' ',' ',#228,#244);
#187=ITEM_DEFINED_TRANSFORMATION(' ',' ',#228,#245);
#188=ITEM_DEFINED_TRANSFORMATION(' ',' ',#228,#246);
#189=ITEM_DEFINED_TRANSFORMATION(' ',' ',#228,#253);
#190=ITEM_DEFINED_TRANSFORMATION(' ',' ',#228,#254);
#191=ITEM_DEFINED_TRANSFORMATION(' ',' ',#228,#255);
#192=ITEM_DEFINED_TRANSFORMATION(' ',' ',#228,#256);
#193=SHAPE_REPRESENTATION_RELATIONSHIP('','',#225,#196);
#194=SHAPE_REPRESENTATION_RELATIONSHIP('','',#226,#197);
#195=SHAPE_REPRESENTATION_RELATIONSHIP('','',#227,#10);
#196=TESSELLATED_SHAPE_REPRESENTATION('',(#218),#378);
#197=TESSELLATED_SHAPE_REPRESENTATION('',(#219),#379);
#198=STYLED_ITEM('',(#200),#218);
#199=STYLED_ITEM('',(#201),#104);
#200=PRESENTATION_STYLE_ASSIGNMENT((#202));
#201=PRESENTATION_STYLE_ASSIGNMENT((#203));
#202=SURFACE_STYLE_USAGE(.BOTH.,#204);
#203=SURFACE_STYLE_USAGE(.BOTH.,#205);
#204=SURFACE_SIDE_STYLE('',(#206));
#205=SURFACE_SIDE_STYLE('',(#207));
#206=SURFACE_STYLE_FILL_AREA(#208);
#207=SURFACE_STYLE_FILL_AREA(#209);
#208=FILL_AREA_STYLE('',(#210));
#209=FILL_AREA_STYLE('',(#211));
#210=FILL_AREA_STYLE_COLOUR('',#212);
#211=FILL_AREA_STYLE_COLOUR('',#213);
#212=COLOUR_RGB('',0.231372549019608,0.380392156862745,0.705882352941177);
#213=COLOUR_RGB('',0.615686274509804,0.811764705882353,0.929411764705882);
#214=COMPLEX_TRIANGULATED_FACE('ConvergentBody',#216,578,((-0.999048240547269,
0.0436189529838371,0.),(0.,0.,1.),(-1.,0.,0.),(0.,0.,-1.),(-1.,0.,0.),(0.,
0.,1.),(-0.999048237660526,-0.0436190191017407,0.),(0.,0.,-1.),(-0.999048237660526,
-0.0436190191017407,0.),(0.,0.,1.),(0.,0.,1.),(-0.999048240547269,0.0436189529838371,
0.),(0.,0.,-1.),(0.,0.,-1.),(0.,0.,-1.),(-0.996194621999653,-0.0871566124798853,
0.),(-0.996194621999653,-0.0871566124798853,0.),(0.,0.,1.),(0.,0.,1.),(-0.99619462892204,
0.0871565333573929,0.),(-0.99619462892204,0.0871565333573929,0.),(0.,0.,
-1.),(0.,0.,-1.),(-0.991444812652862,-0.130526562291864,0.),(-0.991444812652862,
-0.130526562291864,0.),(0.,0.,1.),(0.,0.,1.),(-0.991444812652862,0.130526562291865,
0.),(-0.991444812652862,0.130526562291865,0.),(0.,0.,-1.),(0.,0.,-1.),(-0.984807871486429,
-0.173647505764891,0.),(-0.984807871486429,-0.173647505764891,0.),(0.,0.,
1.),(0.,0.,1.),(-0.984807850917374,0.173647622418225,0.),(-0.984807850917374,
0.173647622418225,0.),(0.,0.,-1.),(0.,0.,-1.),(-0.976296369452983,-0.21643797955286,
0.),(-0.976296369452983,-0.21643797955286,0.),(0.,0.,1.),(0.,0.,1.),(-0.976296312579651,
0.216438236093756,0.),(-0.976296312579651,0.216438236093756,0.),(0.,0.,
-1.),(0.,0.,-1.),(-0.965925777099249,-0.258819228681357,0.),(-0.965925777099249,
-0.258819228681357,0.),(0.,0.,1.),(0.,0.,1.),(-0.965925739747325,0.258819368080488,
0.),(-0.965925739747325,0.258819368080488,0.),(0.,0.,-1.),(0.,0.,-1.),(-0.953716679362129,
-0.300706660229657,0.),(-0.953716679362129,-0.300706660229657,0.),(0.,0.,
1.),(0.,0.,1.),(-0.953716796740285,0.300706287954625,0.),(-0.953716796740285,
0.300706287954625,0.),(0.,0.,-1.),(0.,0.,-1.),(-0.939692718996033,-0.342019873495448,
0.),(-0.939692718996033,-0.342019873495448,0.),(0.,0.,1.),(0.,0.,1.),(-0.939692701968587,
0.342019920278009,0.),(-0.939692701968587,0.342019920278009,0.),(0.,0.,
-1.),(0.,0.,-1.),(-0.923879571786099,-0.382683337547291,0.),(-0.923879571786099,
-0.382683337547291,0.),(0.,0.,1.),(0.,0.,1.),(-0.923879450147489,0.382683631208826,
0.),(-0.923879450147489,0.382683631208826,0.),(0.,0.,-1.),(0.,0.,-1.),(-0.906307964016666,
-0.422617882205623,0.),(-0.906307964016666,-0.422617882205623,0.),(0.,0.,
1.),(0.,0.,1.),(-0.906308129182297,0.422617528006217,0.),(-0.906308129182297,
0.422617528006217,0.),(0.,0.,-1.),(0.,0.,-1.),(-0.887010790255331,-0.46174869568913,
0.),(-0.887010790255331,-0.46174869568913,0.),(0.,0.,1.),(0.,0.,1.),(-0.887010981682067,
0.461748327961688,0.),(-0.887010981682067,0.461748327961688,0.),(0.,0.,
-1.),(0.,0.,-1.),(-0.866025093285667,-0.500000537799262,0.),(-0.866025093285667,
-0.500000537799262,0.),(0.,0.,1.),(0.,0.,1.),(-0.866024930057091,0.500000820518937,
0.),(-0.866024930057091,0.500000820518937,0.),(0.,0.,-1.),(0.,0.,-1.),(-0.843391393333753,
-0.537299690722553,0.),(-0.843391393333753,-0.537299690722553,0.),(0.,0.,
1.),(0.,0.,1.),(-0.843391139470532,0.537300089207695,0.),(-0.843391139470532,
0.537300089207695,0.),(0.,0.,-1.),(0.,0.,-1.),(-0.81915178966354,-0.573576799993706,
0.),(-0.81915178966354,-0.573576799993706,0.),(0.,0.,1.),(0.,0.,1.),(-0.819151995594209,
0.573576505894396,0.),(-0.819151995594209,0.573576505894396,0.),(0.,0.,
-1.),(0.,0.,-1.),(-0.793353775862893,-0.608760861360265,0.),(-0.793353775862893,
-0.608760861360265,0.),(0.,0.,1.),(0.,0.,1.),(-0.79335411010408,0.608760425767775,
0.),(-0.79335411010408,0.608760425767775,0.),(0.,0.,-1.),(0.,0.,-1.),(-0.766044558640248,
-0.642787472013626,0.),(-0.766044558640248,-0.642787472013626,0.),(0.,0.,
1.),(0.,0.,1.),(-0.766044745117785,0.642787249778204,0.),(-0.766044745117785,
0.642787249778204,0.),(0.,0.,-1.),(0.,0.,-1.),(-0.737276556462622,-0.675591059214536,
0.),(-0.737276556462622,-0.675591059214536,0.),(0.,0.,1.),(0.,0.,1.),(-0.737276482248812,
0.675591140204501,0.),(-0.737276482248812,0.675591140204501,0.),(0.,0.,
-1.),(0.,0.,-1.),(-0.707107374972933,-0.707106187399664,0.),(-0.707107374972933,
-0.707106187399664,0.),(0.,0.,1.),(0.,0.,1.),(-0.70710668378509,0.707106878587992,
0.),(-0.70710668378509,0.707106878587992,0.),(0.,0.,-1.),(0.,0.,-1.),(-0.675590414883217,
-0.737277146884347,0.),(-0.675590414883217,-0.737277146884347,0.),(0.,0.,
1.),(0.,0.,1.),(-0.675590143479932,0.737277395579686,0.),(-0.675590143479932,
0.737277395579686,0.),(0.,0.,-1.),(0.,0.,-1.),(-0.642786884749278,-0.766045051412982,
0.),(-0.642786884749278,-0.766045051412982,0.),(0.,0.,1.),(0.,0.,1.),(-0.64278719073593,
0.766044794660084,0.),(-0.64278719073593,0.766044794660084,0.),(0.,0.,-1.),
(0.,0.,-1.),(-0.608761612710709,-0.793353199331708,0.),(-0.608761612710709,
-0.793353199331708,0.),(0.,0.,1.),(0.,0.,1.),(-0.608761734107134,0.793353106180895,
0.),(-0.608761734107134,0.793353106180895,0.),(0.,0.,-1.),(0.,0.,-1.),(-0.573577352642426,
-0.819151402694097,0.),(-0.573577352642426,-0.819151402694097,0.),(0.,0.,
1.),(0.,0.,1.),(-0.573577238904183,0.81915148233465,0.),(-0.573577238904183,
0.81915148233465,0.),(0.,0.,-1.),(0.,0.,-1.),(-0.537299384146339,-0.843391588644305,
0.),(-0.537299384146339,-0.843391588644305,0.),(0.,0.,1.),(0.,0.,1.),(-0.537299856237473,
0.843391287889074,0.),(-0.537299856237473,0.843391287889074,0.),(0.,0.,
-1.),(0.,0.,-1.),(-0.499998210867645,-0.866026436738022,0.),(-0.499998210867645,
-0.866026436738022,0.),(0.,0.,1.),(0.,0.,1.),(-0.499999265335881,0.86602582794255,
0.),(-0.499999265335881,0.86602582794255,0.),(0.,0.,-1.),(0.,0.,-1.),(-0.461749165357068,
-0.887010545761465,0.),(-0.461749165357068,-0.887010545761465,0.),(0.,0.,
1.),(0.,0.,1.),(-0.461748433352774,0.887010926818976,0.),(-0.461748433352774,
0.887010926818976,0.),(0.,0.,-1.),(0.,0.,-1.),(-0.422619856360393,-0.906307043451567,
0.),(-0.422619856360393,-0.906307043451567,0.),(0.,0.,1.),(0.,0.,1.),(-0.422618587863788,
0.906307634962885,0.),(-0.422618587863788,0.906307634962885,0.),(0.,0.,
-1.),(0.,0.,-1.),(-0.382682698536267,-0.923879836472796,0.),(-0.382682698536267,
-0.923879836472796,0.),(0.,0.,1.),(0.,0.,1.),(-0.38268361697886,0.923879456041738,
0.),(-0.38268361697886,0.923879456041738,0.),(0.,0.,-1.),(0.,0.,-1.),(-0.342020834459458,
-0.939692369233493,0.),(-0.342020834459458,-0.939692369233493,0.),(0.,0.,
1.),(0.,0.,1.),(-0.342019938418631,0.939692695365945,0.),(-0.342019938418631,
0.939692695365945,0.),(0.,0.,-1.),(0.,0.,-1.),(-0.300706233462799,-0.953716813921521,
0.),(-0.300706233462799,-0.953716813921521,0.),(0.,0.,1.),(0.,0.,1.),(-0.30070577551304,
0.953716958312633,0.),(-0.30070577551304,0.953716958312633,0.),(0.,0.,-1.),
(0.,0.,-1.),(-0.258818419325302,-0.965925993965352,0.),(-0.258818419325302,
-0.965925993965352,0.),(0.,0.,1.),(0.,0.,1.),(-0.258819254807957,0.965925770098642,
0.),(-0.258819254807957,0.965925770098642,0.),(0.,0.,-1.),(0.,0.,-1.),(-0.216439387684962,
-0.97629605727902,0.),(-0.216439387684962,-0.97629605727902,0.),(0.,0.,
1.),(0.,0.,1.),(-0.216439613405622,0.976296007237981,0.),(-0.216439613405622,
0.976296007237981,0.),(0.,0.,-1.),(0.,0.,-1.),(-0.173647531455327,-0.98480786695653,
0.),(-0.173647531455327,-0.98480786695653,0.),(0.,0.,1.),(0.,0.,1.),(-0.173648114521208,
0.984807764146501,0.),(-0.173648114521208,0.984807764146501,0.),(0.,0.,
-1.),(0.,0.,-1.),(-0.130525273908509,-0.991444982271386,0.),(-0.130525273908509,
-0.991444982271386,0.),(0.,0.,1.),(0.,0.,1.),(-0.130526174085685,0.991444863761245,
0.),(-0.130526174085685,0.991444863761245,0.),(0.,0.,-1.),(0.,0.,-1.),(-0.0871553703774942,
-0.996194730669843,0.),(-0.0871553703774942,-0.996194730669843,0.),(0.,
0.,1.),(0.,0.,1.),(-0.0871558178802929,0.996194691518489,0.),(-0.0871558178802929,
0.996194691518489,0.),(0.,0.,-1.),(0.,0.,-1.),(-0.0436226247647864,-0.99904808022869,
0.),(-0.0436226247647864,-0.99904808022869,0.),(0.,0.,1.),(0.,0.,1.),(-0.0436192910010607,
0.999048225789208,0.),(-0.0436192910010607,0.999048225789208,0.),(0.,0.,
-1.),(0.,0.,-1.),(0.,-1.,0.),(0.,-1.,0.),(0.,0.,1.),(0.,0.,1.),(0.,1.,0.),
(0.,1.,0.),(0.,0.,-1.),(0.,0.,-1.),(0.0436226247647869,-0.99904808022869,
0.),(0.0436226247647869,-0.99904808022869,0.),(0.,0.,1.),(0.,0.,1.),(0.0436192910010612,
0.999048225789208,0.),(0.0436192910010612,0.999048225789208,0.),(0.,0.,
-1.),(0.,0.,-1.),(0.0871553703774947,-0.996194730669843,0.),(0.0871553703774947,
-0.996194730669843,0.),(0.,0.,1.),(0.,0.,1.),(0.0871558178802933,0.996194691518489,
0.),(0.0871558178802933,0.996194691518489,0.),(0.,0.,-1.),(0.,0.,-1.),(0.13052536548448,
-0.991444970215263,0.),(0.13052536548448,-0.991444970215263,0.),(0.,0.,
1.),(0.,0.,1.),(0.130526265661122,0.991444851705107,0.),(0.130526265661122,
0.991444851705107,0.),(0.,0.,-1.),(0.,0.,-1.),(0.173647593254893,-0.984807856059639,
0.),(0.173647593254893,-0.984807856059639,0.),(0.,0.,1.),(0.,0.,1.),(0.173648176319955,
0.984807753249716,0.),(0.173648176319955,0.984807753249716,0.),(0.,0.,-1.),
(0.,0.,-1.),(0.216439358773665,-0.976296063688493,0.),(0.216439358773665,
-0.976296063688493,0.),(0.,0.,1.),(0.,0.,1.),(0.216439584494035,0.976296013647525,
0.),(0.216439584494035,0.976296013647525,0.),(0.,0.,-1.),(0.,0.,-1.),(0.258818255210664,
-0.965926037939607,0.),(0.258818255210664,-0.965926037939607,0.),(0.,0.,
1.),(0.,0.,1.),(0.25881909069163,0.965925814073502,0.),(0.25881909069163,
0.965925814073502,0.),(0.,0.,-1.),(0.,0.,-1.),(0.30070621102685,-0.953716820995559,
0.),(0.30070621102685,-0.953716820995559,0.),(0.,0.,1.),(0.,0.,1.),(0.300705753073812,
0.953716965387694,0.),(0.300705753073812,0.953716965387694,0.),(0.,0.,-1.),
(0.,0.,-1.),(0.342021010784201,-0.93969230505637,0.),(0.342021010784201,
-0.93969230505637,0.),(0.,0.,1.),(0.,0.,1.),(0.342020114742092,0.939692631189479,
0.),(0.342020114742092,0.939692631189479,0.),(0.,0.,-1.),(0.,0.,-1.),(0.382682581334245,
-0.923879885019345,0.),(0.382682581334245,-0.923879885019345,0.),(0.,0.,
1.),(0.,0.,1.),(0.382683499777205,0.923879504588271,0.),(0.382683499777205,
0.923879504588271,0.),(0.,0.,-1.),(0.,0.,-1.),(0.422619551874797,-0.906307185436122,
0.),(0.422619551874797,-0.906307185436122,0.),(0.,0.,1.),(0.,0.,1.),(0.422618283378666,
0.9063077769467,0.),(0.422618283378666,0.9063077769467,0.),(0.,0.,-1.),
(0.,0.,-1.),(0.461749340286691,-0.887010454698706,0.),(0.461749340286691,
-0.887010454698706,0.),(0.,0.,1.),(0.,0.,1.),(0.461748608283318,0.887010835755922,
0.),(0.461748608283318,0.887010835755922,0.),(0.,0.,-1.),(0.,0.,-1.),(0.499998970292157,
-0.866025998285723,0.),(0.499998970292157,-0.866025998285723,0.),(0.,0.,
1.),(0.,0.,1.),(0.50000002476094,0.866025389488703,0.),(0.50000002476094,
0.866025389488703,0.),(0.,0.,-1.),(0.,0.,-1.),(0.537299104585061,-0.843391766744312,
0.),(0.537299104585061,-0.843391766744312,0.),(0.,0.,1.),(0.,0.,1.),(0.537299576677404,
0.843391465988531,0.),(0.537299576677404,0.843391465988531,0.),(0.,0.,-1.),
(0.,0.,-1.),(0.573576514782074,-0.819151989370989,0.),(0.573576514782074,
-0.819151989370989,0.),(0.,0.,1.),(0.,0.,1.),(0.573576401044055,0.819152069011212,
0.),(0.573576401044055,0.819152069011212,0.),(0.,0.,-1.),(0.,0.,-1.),(0.608761244159158,
-0.793353482131259,0.),(0.608761244159158,-0.793353482131259,0.),(0.,0.,
1.),(0.,0.,1.),(0.6087613655556,0.793353388980523,0.),(0.6087613655556,
0.793353388980523,0.),(0.,0.,-1.),(0.,0.,-1.),(0.642787126415694,-0.766044848631106,
0.),(0.642787126415694,-0.766044848631106,0.),(0.,0.,1.),(0.,0.,1.),(0.642787432402362,
0.766044591878031,0.),(0.642787432402362,0.766044591878031,0.),(0.,0.,-1.),
(0.,0.,-1.),(0.675590548062319,-0.737277024848093,0.),(0.675590548062319,
-0.737277024848093,0.),(0.,0.,1.),(0.,0.,1.),(0.675590276659214,0.737277273543357,
0.),(0.675590276659214,0.737277273543357,0.),(0.,0.,-1.),(0.,0.,-1.),(0.70710769835519,
-0.707105864016715,0.),(0.70710769835519,-0.707105864016715,0.),(0.,0.,
1.),(0.,0.,1.),(0.707107007167726,0.707106555205297,0.),(0.707107007167726,
0.707106555205297,0.),(0.,0.,-1.),(0.,0.,-1.),(0.737277457498954,-0.67559007590689,
0.),(0.737277457498954,-0.67559007590689,0.),(0.,0.,1.),(0.,0.,1.),(0.737277383285258,
0.675590156896948,0.),(0.737277383285258,0.675590156896948,0.),(0.,0.,-1.),
(0.,0.,-1.),(0.766044091127103,-0.642788029173887,0.),(0.766044091127103,
-0.642788029173887,0.),(0.,0.,1.),(0.,0.,1.),(0.766044277604915,0.642787806938467,
0.),(0.766044277604915,0.642787806938467,0.),(0.,0.,-1.),(0.,0.,-1.),(0.793353055199077,
-0.608761800547874,0.),(0.793353055199077,-0.608761800547874,0.),(0.,0.,
1.),(0.,0.,1.),(0.793353389440902,0.608761364955623,0.),(0.793353389440902,
0.608761364955623,0.),(0.,0.,-1.),(0.,0.,-1.),(0.819151934448153,-0.57357659321999,
0.),(0.819151934448153,-0.57357659321999,0.),(0.,0.,1.),(0.,0.,1.),(0.819152140378748,
0.573576299120628,0.),(0.819152140378748,0.573576299120628,0.),(0.,0.,-1.),
(0.,0.,-1.),(0.843391528961153,-0.537299477830165,0.),(0.843391528961153,
-0.537299477830165,0.),(0.,0.,1.),(0.,0.,1.),(0.843391275098033,0.537299876315372,
0.),(0.843391275098033,0.537299876315372,0.),(0.,0.,-1.),(0.,0.,-1.),(0.866025625613387,
-0.499999615780794,0.),(0.866025625613387,-0.499999615780794,0.),(0.,0.,
1.),(0.,0.,1.),(0.866025462384914,0.499999898500986,0.),(0.866025462384914,
0.499999898500986,0.),(0.,0.,-1.),(0.,0.,-1.),(0.887010778958362,-0.4617487173904,
0.),(0.887010778958362,-0.4617487173904,0.),(0.,0.,1.),(0.,0.,1.),(0.887010970385339,
0.461748349662518,0.),(0.887010970385339,0.461748349662518,0.),(0.,0.,-1.),
(0.,0.,-1.),(0.906307503734157,-0.422618869284325,0.),(0.906307503734157,
-0.422618869284325,0.),(0.,0.,1.),(0.,0.,1.),(0.906307668900553,0.422618515084285,
0.),(0.906307668900553,0.422618515084285,0.),(0.,0.,-1.),(0.,0.,-1.),(0.923879571786101,
-0.382683337547286,0.),(0.923879571786101,-0.382683337547286,0.),(0.,0.,
1.),(0.,0.,1.),(0.923879450147491,0.382683631208821,0.),(0.923879450147491,
0.382683631208821,0.),(0.,0.,-1.),(0.,0.,-1.),(0.939692718996037,-0.342019873495437,
0.),(0.939692718996037,-0.342019873495437,0.),(0.,0.,1.),(0.,0.,1.),(0.939692701968592,
0.342019920277998,0.),(0.939692701968592,0.342019920277998,0.),(0.,0.,-1.),
(0.,0.,-1.),(0.953716854649605,-0.300706104289991,0.),(0.953716854649605,
-0.300706104289991,0.),(0.,0.,1.),(0.,0.,1.),(0.953716972027545,0.300705732014891,
0.),(0.953716972027545,0.300705732014891,0.),(0.,0.,-1.),(0.,0.,-1.),(0.965925927969743,
-0.25881866562478,0.),(0.965925927969743,-0.25881866562478,0.),(0.,0.,1.),
(0.,0.,1.),(0.9659258906179,0.258818805023932,0.),(0.9659258906179,0.258818805023932,
0.),(0.,0.,-1.),(0.,0.,-1.),(0.9762961116707,-0.216439142339531,0.),(0.9762961116707,
-0.216439142339531,0.),(0.,0.,1.),(0.,0.,1.),(0.976296054796767,0.21643939888169,
0.),(0.976296054796767,0.21643939888169,0.),(0.,0.,-1.),(0.,0.,-1.),(0.984807664668379,
-0.173648678688937,0.),(0.984807664668379,-0.173648678688937,0.),(0.,0.,
1.),(0.,0.,1.),(0.984807644098948,0.173648795343588,0.),(0.984807644098948,
0.173648795343588,0.),(0.,0.,-1.),(0.,0.,-1.),(0.991444891434235,-0.130525963888257,
0.),(0.991444891434235,-0.130525963888257,0.),(0.,0.,1.),(0.,0.,1.),(0.991444891434235,
0.130525963888258,0.),(0.991444891434235,0.130525963888258,0.),(0.,0.,-1.),
(0.,0.,-1.),(0.996194727409974,-0.0871554076381222,0.),(0.996194727409974,
-0.0871554076381222,0.),(0.,0.,1.),(0.,0.,1.),(0.996194734332139,0.087155328517078,
0.),(0.996194734332139,0.087155328517078,0.),(0.,0.,-1.),(0.,0.,-1.),(0.999048184653232,
-0.043620233161713,0.),(0.999048184653232,-0.043620233161713,0.),(0.,0.,
1.),(0.,0.,1.),(0.999048187539895,0.0436201670474813,0.),(0.999048187539895,
0.0436201670474813,0.),(0.,0.,-1.),(0.,0.,-1.),(1.,0.,0.),(1.,0.,0.),(0.,
0.,1.)),$,(6,6,1,1,2,2,3,3,4,4,144,5,5,143,7,7,8,8,10,10,9,9,11,11,12,12,
14,14,13,13,15,15,16,16,18,18,17,17,19,19,20,20,22,22,21,21,23,23,24,24,
26,26,25,25,27,27,28,28,30,30,29,29,31,31,32,32,34,34,33,33,35,35,36,36,
38,38,37,37,39,39,40,40,42,42,41,41,43,43,44,44,46,46,45,45,47,47,48,48,
50,50,49,49,51,51,52,52,54,54,53,53,55,55,56,56,58,58,57,57,59,59,60,60,
62,62,61,61,63,63,64,64,66,66,65,65,67,67,68,68,70,70,69,69,71,71,72,72,
74,74,73,73,75,75,76,76,78,78,77,77,79,79,80,80,82,82,81,81,83,83,84,84,
86,86,85,85,87,87,88,88,90,90,89,89,91,91,92,92,94,94,93,93,95,95,96,96,
98,98,97,97,99,99,100,100,102,102,101,101,103,103,104,104,106,106,105,105,
107,107,108,108,110,110,109,109,111,111,112,112,114,114,113,113,115,115,
116,116,118,118,117,117,119,119,120,120,122,122,121,121,123,123,124,124,
126,126,125,125,127,127,128,128,130,130,129,129,131,131,132,132,134,134,
133,133,135,135,136,136,138,138,137,137,139,139,140,140,142,142,141,141,
145,145,146,146,148,148,147,147,149,149,150,150,152,152,151,151,153,153,
154,154,156,156,155,155,157,157,158,158,160,160,159,159,161,161,162,162,
164,164,163,163,165,165,166,166,168,168,167,167,169,169,170,170,172,172,
171,171,173,173,174,174,176,176,175,175,177,177,178,178,180,180,179,179,
181,181,182,182,184,184,183,183,185,185,186,186,188,188,187,187,189,189,
190,190,192,192,191,191,193,193,194,194,196,196,195,195,197,197,198,198,
200,200,199,199,201,201,202,202,204,204,203,203,205,205,206,206,208,208,
207,207,209,209,210,210,212,212,211,211,213,213,214,214,216,216,215,215,
217,217,218,218,220,220,219,219,221,221,222,222,224,224,223,223,225,225,
226,226,228,228,227,227,229,229,230,230,232,232,231,231,233,233,234,234,
236,236,235,235,237,237,238,238,240,240,239,239,241,241,242,242,244,244,
243,243,245,245,246,246,248,248,247,247,249,249,250,250,252,252,251,251,
253,253,254,254,256,256,255,255,257,257,258,258,260,260,259,259,261,261,
262,262,264,264,263,263,265,265,266,266,268,268,267,267,269,269,270,270,
272,272,271,271,273,273,274,274,276,276,275,275,277,277,278,278,280,280,
279,279,281,281,282,282,284,284,283,283,285,285,286,286,288,288,287,287,
289,289,290,290),((1,3,5),(3,7,5),(5,7,9),(11,6,10),(2,6,11),(12,3,1),(8,
4,14),(14,4,13),(7,16,9),(9,16,17),(10,18,11),(20,12,1),(19,2,11),(15,8,
14),(21,12,20),(13,22,14),(16,24,17),(17,24,25),(18,26,11),(28,21,20),(11,
27,19),(14,23,15),(29,21,28),(22,30,14),(24,32,25),(25,32,33),(11,26,34),
(36,29,28),(35,27,11),(31,23,14),(37,29,36),(14,30,38),(32,40,33),(33,40,
41),(34,42,11),(44,37,36),(43,35,11),(39,31,14),(45,37,44),(38,46,14),(40,
48,41),(41,48,49),(42,50,11),(52,45,44),(11,51,43),(14,47,39),(53,45,52),
(46,54,14),(48,56,49),(49,56,57),(11,50,58),(60,53,52),(59,51,11),(55,47,
14),(61,53,60),(14,54,62),(56,64,57),(57,64,65),(58,66,11),(68,61,60),(67,
59,11),(63,55,14),(69,61,68),(62,70,14),(64,72,65),(65,72,73),(66,74,11),
(76,69,68),(11,75,67),(14,71,63),(77,69,76),(70,78,14),(72,80,73),(73,80,
81),(11,74,82),(84,77,76),(83,75,11),(79,71,14),(85,77,84),(14,78,86),(80,
88,81),(81,88,89),(82,90,11),(92,85,84),(91,83,11),(87,79,14),(93,85,92),
(86,94,14),(88,96,89),(89,96,97),(90,98,11),(100,93,92),(11,99,91),(14,
95,87),(101,93,100),(94,102,14),(96,104,97),(97,104,105),(11,98,106),(108,
101,100),(107,99,11),(103,95,14),(109,101,108),(14,102,110),(104,112,105),
(105,112,113),(106,114,11),(116,109,108),(115,107,11),(111,103,14),(117,
109,116),(110,118,14),(112,120,113),(113,120,121),(114,122,11),(124,117,
116),(11,123,115),(14,119,111),(125,117,124),(118,126,14),(120,128,121),
(121,128,129),(11,122,130),(132,125,124),(131,123,11),(127,119,14),(133,
125,132),(14,126,134),(128,136,129),(129,136,137),(130,138,11),(140,133,
132),(139,131,11),(135,127,14),(141,133,140),(134,142,14),(136,144,137),
(137,144,145),(138,146,11),(148,141,140),(11,147,139),(14,143,135),(149,
141,148),(142,150,14),(144,152,145),(145,152,153),(11,146,154),(156,149,
148),(155,147,11),(151,143,14),(157,149,156),(14,150,158),(152,160,153),
(153,160,161),(154,162,11),(164,157,156),(163,155,11),(159,151,14),(165,
157,164),(158,166,14),(160,168,161),(161,168,169),(162,170,11),(172,165,
164),(11,171,163),(14,167,159),(173,165,172),(166,174,14),(168,176,169),
(169,176,177),(11,170,178),(180,173,172),(179,171,11),(175,167,14),(181,
173,180),(14,174,182),(176,184,177),(177,184,185),(178,186,11),(188,181,
180),(187,179,11),(183,175,14),(189,181,188),(182,190,14),(184,192,185),
(185,192,193),(186,194,11),(196,189,188),(11,195,187),(14,191,183),(197,
189,196),(190,198,14),(192,200,193),(193,200,201),(11,194,202),(204,197,
196),(203,195,11),(199,191,14),(205,197,204),(14,198,206),(200,208,201),
(201,208,209),(202,210,11),(212,205,204),(211,203,11),(207,199,14),(213,
205,212),(206,214,14),(208,216,209),(209,216,217),(210,218,11),(220,213,
212),(11,219,211),(14,215,207),(221,213,220),(214,222,14),(216,224,217),
(217,224,225),(11,218,226),(228,221,220),(227,219,11),(223,215,14),(229,
221,228),(14,222,230),(224,232,225),(225,232,233),(226,234,11),(236,229,
228),(235,227,11),(231,223,14),(237,229,236),(230,238,14),(232,240,233),
(233,240,241),(234,242,11),(244,237,236),(11,243,235),(14,239,231),(245,
237,244),(238,246,14),(240,248,241),(241,248,249),(11,242,250),(252,245,
244),(251,243,11),(247,239,14),(253,245,252),(14,246,254),(248,256,249),
(249,256,257),(250,258,11),(260,253,252),(259,251,11),(255,247,14),(261,
253,260),(254,262,14),(256,264,257),(257,264,265),(258,266,11),(268,261,
260),(11,267,259),(14,263,255),(269,261,268),(262,270,14),(264,272,265),
(265,272,273),(11,266,274),(276,269,268),(275,267,11),(271,263,14),(277,
269,276),(14,270,278),(272,280,273),(273,280,281),(274,282,11),(284,277,
276),(283,275,11),(279,271,14),(285,277,284),(278,286,14),(280,288,281),
(281,288,289),(282,290,11),(292,285,284),(11,291,283),(14,287,279),(293,
285,292),(286,294,14),(288,296,289),(289,296,297),(11,290,298),(300,293,
292),(299,291,11),(295,287,14),(301,293,300),(14,294,302),(296,304,297),
(297,304,305),(298,306,11),(308,301,300),(307,299,11),(303,295,14),(309,
301,308),(302,310,14),(304,312,305),(305,312,313),(306,314,11),(316,309,
308),(11,315,307),(14,311,303),(317,309,316),(310,318,14),(312,320,313),
(313,320,321),(11,314,322),(324,317,316),(323,315,11),(319,311,14),(325,
317,324),(14,318,326),(320,328,321),(321,328,329),(322,330,11),(332,325,
324),(331,323,11),(327,319,14),(333,325,332),(326,334,14),(328,336,329),
(329,336,337),(330,338,11),(340,333,332),(11,339,331),(14,335,327),(341,
333,340),(334,342,14),(336,344,337),(337,344,345),(11,338,346),(348,341,
340),(347,339,11),(343,335,14),(349,341,348),(14,342,350),(344,352,345),
(345,352,353),(346,354,11),(356,349,348),(355,347,11),(351,343,14),(357,
349,356),(350,358,14),(352,360,353),(353,360,361),(354,362,11),(364,357,
356),(11,363,355),(14,359,351),(365,357,364),(358,366,14),(360,368,361),
(361,368,369),(11,362,370),(372,365,364),(371,363,11),(367,359,14),(373,
365,372),(14,366,374),(368,376,369),(369,376,377),(370,378,11),(380,373,
372),(379,371,11),(375,367,14),(381,373,380),(374,382,14),(376,384,377),
(377,384,385),(378,386,11),(388,381,380),(11,387,379),(14,383,375),(389,
381,388),(382,390,14),(384,392,385),(385,392,393),(11,386,394),(396,389,
388),(395,387,11),(391,383,14),(397,389,396),(14,390,398),(392,400,393),
(393,400,401),(394,402,11),(404,397,396),(403,395,11),(399,391,14),(405,
397,404),(398,406,14),(400,408,401),(401,408,409),(402,410,11),(412,405,
404),(11,411,403),(14,407,399),(413,405,412),(406,414,14),(408,416,409),
(409,416,417),(11,410,418),(420,413,412),(419,411,11),(415,407,14),(421,
413,420),(14,414,422),(416,424,417),(417,424,425),(418,426,11),(428,421,
420),(427,419,11),(423,415,14),(429,421,428),(422,430,14),(424,432,425),
(425,432,433),(426,434,11),(436,429,428),(11,435,427),(14,431,423),(437,
429,436),(430,438,14),(432,440,433),(433,440,441),(11,434,442),(444,437,
436),(443,435,11),(439,431,14),(445,437,444),(14,438,446),(440,448,441),
(441,448,449),(442,450,11),(452,445,444),(451,443,11),(447,439,14),(453,
445,452),(446,454,14),(448,456,449),(449,456,457),(450,458,11),(460,453,
452),(11,459,451),(14,455,447),(461,453,460),(454,462,14),(456,464,457),
(457,464,465),(11,458,466),(468,461,460),(467,459,11),(463,455,14),(469,
461,468),(14,462,470),(464,472,465),(465,472,473),(466,474,11),(476,469,
468),(475,467,11),(471,463,14),(477,469,476),(470,478,14),(472,480,473),
(473,480,481),(474,482,11),(484,477,476),(11,483,475),(14,479,471),(485,
477,484),(478,486,14),(480,488,481),(481,488,489),(11,482,490),(492,485,
484),(491,483,11),(487,479,14),(493,485,492),(14,486,494),(488,496,489),
(489,496,497),(490,498,11),(500,493,492),(499,491,11),(495,487,14),(501,
493,500),(494,502,14),(496,504,497),(497,504,505),(498,506,11),(508,501,
500),(11,507,499),(14,503,495),(509,501,508),(502,510,14),(504,512,505),
(505,512,513),(11,506,514),(516,509,508),(515,507,11),(511,503,14),(517,
509,516),(14,510,518),(512,520,513),(513,520,521),(514,522,11),(524,517,
516),(523,515,11),(519,511,14),(525,517,524),(518,526,14),(520,528,521),
(521,528,529),(522,530,11),(532,525,524),(11,531,523),(14,527,519),(533,
525,532),(526,534,14),(528,536,529),(529,536,537),(11,530,538),(540,533,
532),(539,531,11),(535,527,14),(541,533,540),(14,534,542),(536,544,537),
(537,544,545),(538,546,11),(548,541,540),(547,539,11),(543,535,14),(549,
541,548),(542,550,14),(544,552,545),(545,552,553),(546,554,11),(556,549,
548),(11,555,547),(14,551,543),(557,549,556),(550,558,14),(552,560,553),
(553,560,561),(11,554,562),(564,557,556),(563,555,11),(559,551,14),(565,
557,564),(14,558,566),(560,568,561),(561,568,569),(562,570,11),(572,565,
564),(571,563,11),(567,559,14),(573,565,572),(566,574,14),(568,576,569),
(569,576,577),(570,578,11),(577,573,572),(11,578,571),(14,575,567),(576,
573,577),(574,575,14)),());
#215=COMPLEX_TRIANGULATED_FACE('ConvergentBody',#217,24,((-1.,0.,0.),(0.,
0.,-1.),(0.,-1.,0.),(0.,-1.,0.),(-1.,0.,0.),(0.,0.,1.),(-1.,0.,0.),(0.,
0.,1.),(0.,1.,0.),(0.,0.,1.),(0.,-1.,0.),(1.,0.,0.),(0.,-1.,0.),(1.,0.,
0.),(0.,0.,-1.),(-1.,0.,0.),(0.,1.,0.),(0.,0.,-1.),(0.,1.,0.),(0.,0.,1.),
(1.,0.,0.),(0.,0.,-1.),(0.,1.,0.),(1.,0.,0.)),$,(1,1,1,2,2,2,4,4,4,6,6,
6,5,5,5,3,3,3,8,8,8,7,7,7),((1,5,7),(8,6,10),(3,13,4),(13,11,4),(16,1,7),
(17,9,19),(20,8,10),(18,22,2),(22,15,2),(23,17,19),(24,21,12),(14,24,12)),
());
#216=COORDINATES_LIST('',290,((-0.0126842098236084,-0.00771381616592407,
-0.065),(-0.0126842098236084,-0.00771381616592407,0.),(-0.0126756448745728,
-0.00810639095306396,-0.065),(-0.0126756448745728,-0.00810639095306396,
0.),(-0.0126756448745728,-0.00732124185562134,-0.065),(-0.0126756448745728,
-0.00732124185562134,0.),(-0.0126499624252319,-0.00849821758270264,-0.065),
(-0.0126499624252319,-0.00849821758270264,0.),(-0.0126499624252319,-0.00692941427230835,
-0.065),(-0.0126499624252319,-0.00692941427230835,0.),(-0.012607213973999,
-0.00888855171203613,-0.065),(-0.012607213973999,-0.00888855171203613,0.),
(-0.012607213973999,-0.00653908014297485,-0.065),(-0.012607213973999,-0.00653908014297485,
0.),(-0.0125474796295166,-0.00927664947509766,-0.065),(-0.0125474796295166,
-0.00927664947509766,0.),(-0.0125474796295166,-0.00615098237991333,-0.065),
(-0.0125474796295166,-0.00615098237991333,0.),(-0.0124708747863769,-0.00966177272796631,
-0.065),(-0.0124708747863769,-0.00966177272796631,0.),(-0.0124708747863769,
-0.00576585960388184,-0.065),(-0.0124708747863769,-0.00576585960388184,
0.),(-0.0123775434494019,-0.0100431880950928,-0.065),(-0.0123775434494019,
-0.0100431880950928,0.),(-0.0123775434494019,-0.00538444471359253,-0.065),
(-0.0123775434494019,-0.00538444471359253,0.),(-0.0122676630020142,-0.0104201688766479,
-0.065),(-0.0122676630020142,-0.0104201688766479,0.),(-0.0122676630020142,
-0.00500746393203735,-0.065),(-0.0122676630020142,-0.00500746393203735,
0.),(-0.0121414442062378,-0.0107919969558716,-0.065),(-0.0121414442062378,
-0.0107919969558716,0.),(-0.0121414442062378,-0.0046356348991394,-0.065),
(-0.0121414442062378,-0.0046356348991394,0.),(-0.0119991264343262,-0.0111579675674438,
-0.065),(-0.0119991264343262,-0.0111579675674438,0.),(-0.0119991264343262,
-0.00426966524124145,-0.065),(-0.0119991264343262,-0.00426966524124145,
0.),(-0.0118409805297852,-0.0115173807144165,-0.065),(-0.0118409805297852,
-0.0115173807144165,0.),(-0.0118409805297852,-0.00391025185585022,-0.065),
(-0.0118409805297852,-0.00391025185585022,0.),(-0.011667308807373,-0.011869553565979,
-0.065),(-0.011667308807373,-0.011869553565979,0.),(-0.011667308807373,
-0.00355807852745056,-0.065),(-0.011667308807373,-0.00355807852745056,0.),
(-0.0114784393310547,-0.0122138156890869,-0.065),(-0.0114784393310547,-0.0122138156890869,
0.),(-0.0114784393310547,-0.00321381616592407,-0.065),(-0.0114784393310547,
-0.00321381616592407,0.),(-0.011274733543396,-0.0125495128631592,-0.065),
(-0.011274733543396,-0.0125495128631592,0.),(-0.011274733543396,-0.00287811970710754,
-0.065),(-0.011274733543396,-0.00287811970710754,0.),(-0.0110565786361694,
-0.0128760042190552,-0.065),(-0.0110565786361694,-0.0128760042190552,0.),
(-0.0110565786361694,-0.00255162835121155,-0.065),(-0.0110565786361694,
-0.00255162835121155,0.),(-0.0108243904113769,-0.0131926689147949,-0.065),
(-0.0108243904113769,-0.0131926689147949,0.),(-0.0108243904113769,-0.00223496317863465,
-0.065),(-0.0108243904113769,-0.00223496317863465,0.),(-0.0105786113739014,
-0.0134989042282104,-0.065),(-0.0105786113739014,-0.0134989042282104,0.),
(-0.0105786113739014,-0.00192872762680053,-0.065),(-0.0105786113739014,
-0.00192872762680053,0.),(-0.0103197069168091,-0.0137941274642944,-0.065),
(-0.0103197069168091,-0.0137941274642944,0.),(-0.0103197069168091,-0.00163350427150727,
-0.065),(-0.0103197069168091,-0.00163350427150727,0.),(-0.010048171043396,
-0.0140777769088745,-0.065),(-0.010048171043396,-0.0140777769088745,0.),
(-0.010048171043396,-0.00134985506534576,-0.065),(-0.010048171043396,-0.00134985506534576,
0.),(-0.00976452255249024,-0.0143493127822876,-0.065),(-0.00976452255249024,
-0.0143493127822876,0.),(-0.00976452255249024,-0.0010783200263977,-0.065),
(-0.00976452255249024,-0.0010783200263977,0.),(-0.00946929836273193,-0.0146082162857056,
-0.065),(-0.00946929836273193,-0.0146082162857056,0.),(-0.00946929836273193,
-0.000819416105747223,-0.065),(-0.00946929836273193,-0.000819416105747223,
0.),(-0.00916306304931641,-0.0148539962768555,-0.065),(-0.00916306304931641,
-0.0148539962768555,0.),(-0.00916306304931641,-0.000573636114597321,-0.065),
(-0.00916306304931641,-0.000573636114597321,0.),(-0.00884639835357666,-0.0150861845016479,
-0.065),(-0.00884639835357666,-0.0150861845016479,0.),(-0.00884639835357666,
-0.000341447740793228,-0.065),(-0.00884639835357666,-0.000341447740793228,
0.),(-0.00851990795135498,-0.0153043394088745,-0.065),(-0.00851990795135498,
-0.0153043394088745,0.),(-0.00851990795135498,-0.000123293109238148,-0.065),
(-0.00851990795135498,-0.000123293109238148,0.),(-0.00818421077728272,-0.0155080442428589,
-0.065),(-0.00818421077728272,-0.0155080442428589,0.),(-0.00818421077728272,
8.04125070571899E-5,-0.065),(-0.00818421077728272,8.04125070571899E-5,0.),
(-0.00783994770050049,-0.0156969127655029,-0.065),(-0.00783994770050049,
-0.0156969127655029,0.),(-0.00783994770050049,0.000269281357526779,-0.065),
(-0.00783994770050049,0.000269281357526779,0.),(-0.00748777484893799,-0.0158705863952637,
-0.065),(-0.00748777484893799,-0.0158705863952637,0.),(-0.00748777484893799,
0.000442953944206238,-0.065),(-0.00748777484893799,0.000442953944206238,
0.),(-0.00712836170196533,-0.0160287322998047,-0.065),(-0.00712836170196533,
-0.0160287322998047,0.),(-0.00712836170196533,0.000601099669933319,-0.065),
(-0.00712836170196533,0.000601099669933319,0.),(-0.00676239204406738,-0.016171049118042,
-0.065),(-0.00676239204406738,-0.016171049118042,0.),(-0.00676239204406738,
0.000743417501449585,-0.065),(-0.00676239204406738,0.000743417501449585,
0.),(-0.00639056253433228,-0.016297269821167,-0.065),(-0.00639056253433228,
-0.016297269821167,0.),(-0.00639056253433228,0.000869636416435242,-0.065),
(-0.00639056253433228,0.000869636416435242,0.),(-0.00601358222961426,-0.016407148361206,
-0.065),(-0.00601358222961426,-0.016407148361206,0.),(-0.00601358222961426,
0.000979516327381134,-0.065),(-0.00601358222961426,0.000979516327381134,
0.),(-0.00563216733932495,-0.0165004806518554,-0.065),(-0.00563216733932495,
-0.0165004806518554,0.),(-0.00563216733932495,0.00107284796237946,-0.065),
(-0.00563216733932495,0.00107284796237946,0.),(-0.00524704456329346,-0.0165770854949951,
-0.065),(-0.00524704456329346,-0.0165770854949951,0.),(-0.00524704456329346,
0.00114945363998413,-0.065),(-0.00524704456329346,0.00114945363998413,0.),
(-0.00485894632339478,-0.0166368198394776,-0.065),(-0.00485894632339478,
-0.0166368198394776,0.),(-0.00485894632339478,0.00120918762683868,-0.065),
(-0.00485894632339478,0.00120918762683868,0.),(-0.00446861219406128,-0.0166795673370361,
-0.065),(-0.00446861219406128,-0.0166795673370361,0.),(-0.00446861219406128,
0.00125193619728088,-0.065),(-0.00446861219406128,0.00125193619728088,0.),
(-0.00407678508758545,-0.016705249786377,-0.065),(-0.00407678508758545,
-0.016705249786377,0.),(-0.00407678508758545,0.00127761793136597,-0.065),
(-0.00407678508758545,0.00127761793136597,0.),(-0.00368421053886414,-0.00771381616592406,
-0.065),(-0.00368421053886414,-0.00771381616592406,0.),(-0.00368421053886413,
-0.0167138175964355,-0.065),(-0.00368421053886413,-0.0167138175964355,0.),
(-0.00368421053886413,0.00128618383407593,-0.065),(-0.00368421053886413,
0.00128618383407593,0.),(-0.00329163599014282,-0.016705249786377,-0.065),
(-0.00329163599014282,-0.016705249786377,0.),(-0.00329163599014282,0.00127761793136597,
-0.065),(-0.00329163599014282,0.00127761793136597,0.),(-0.002899808883667,
-0.0166795673370361,-0.065),(-0.002899808883667,-0.0166795673370361,0.),
(-0.002899808883667,0.00125193619728088,-0.065),(-0.002899808883667,0.00125193619728088,
0.),(-0.00250947475433349,-0.0166368198394776,-0.065),(-0.00250947475433349,
-0.0166368198394776,0.),(-0.00250947475433349,0.00120918762683868,-0.065),
(-0.00250947475433349,0.00120918762683868,0.),(-0.00212137699127197,-0.0165770854949951,
-0.065),(-0.00212137699127197,-0.0165770854949951,0.),(-0.00212137699127197,
0.00114945363998413,-0.065),(-0.00212137699127197,0.00114945363998413,0.),
(-0.00173625409603119,-0.0165004806518554,-0.065),(-0.00173625409603119,
-0.0165004806518554,0.),(-0.00173625409603119,0.00107284796237946,-0.065),
(-0.00173625409603119,0.00107284796237946,0.),(-0.00135483920574188,-0.016407148361206,
-0.065),(-0.00135483920574188,-0.016407148361206,0.),(-0.00135483920574188,
0.000979516327381134,-0.065),(-0.00135483920574188,0.000979516327381134,
0.),(-0.000977858424186707,-0.016297269821167,-0.065),(-0.000977858424186707,
-0.016297269821167,0.),(-0.000977858424186707,0.000869636416435242,-0.065),
(-0.000977858424186707,0.000869636416435242,0.),(-0.000606029272079468,
-0.016171049118042,-0.065),(-0.000606029272079468,-0.016171049118042,0.),
(-0.000606029272079468,0.000743417501449585,-0.065),(-0.000606029272079468,
0.000743417501449585,0.),(-0.000240059703588486,-0.0160287322998047,-0.065),
(-0.000240059703588486,-0.0160287322998047,0.),(-0.000240059703588486,0.000601099669933319,
-0.065),(-0.000240059703588486,0.000601099669933319,0.),(0.000119353771209717,
-0.0158705863952637,-0.065),(0.000119353771209717,-0.0158705863952637,0.),
(0.000119353771209717,0.000442953944206238,-0.065),(0.000119353771209717,
0.000442953944206238,0.),(0.000471526920795441,-0.0156969127655029,-0.065),
(0.000471526920795441,-0.0156969127655029,0.),(0.000471526920795441,0.000269281357526779,
-0.065),(0.000471526920795441,0.000269281357526779,0.),(0.000815789401531219,
-0.0155080442428589,-0.065),(0.000815789401531219,-0.0155080442428589,0.),
(0.000815789401531219,8.04125070571899E-5,-0.065),(0.000815789401531219,
8.04125070571899E-5,0.),(0.0011514858007431,-0.0153043394088745,-0.065),
(0.0011514858007431,-0.0153043394088745,0.),(0.0011514858007431,-0.000123293109238148,
-0.065),(0.0011514858007431,-0.000123293109238148,0.),(0.00147797739505768,
-0.0150861845016479,-0.065),(0.00147797739505768,-0.0150861845016479,0.),
(0.00147797739505768,-0.000341447740793228,-0.065),(0.00147797739505768,
-0.000341447740793228,0.),(0.001794642329216,-0.0148539962768555,-0.065),
(0.001794642329216,-0.0148539962768555,0.),(0.001794642329216,-0.000573636114597321,
-0.065),(0.001794642329216,-0.000573636114597321,0.),(0.0021008780002594,
-0.0146082162857056,-0.065),(0.0021008780002594,-0.0146082162857056,0.),
(0.0021008780002594,-0.000819416105747223,-0.065),(0.0021008780002594,-0.000819416105747223,
0.),(0.00239610147476197,-0.0143493127822876,-0.065),(0.00239610147476197,
-0.0143493127822876,0.),(0.00239610147476197,-0.0010783200263977,-0.065),
(0.00239610147476197,-0.0010783200263977,0.),(0.00267975044250489,-0.0140777769088745,
-0.065),(0.00267975044250489,-0.0140777769088745,0.),(0.00267975044250489,
-0.00134985506534576,-0.065),(0.00267975044250489,-0.00134985506534576,
0.),(0.00295128536224365,-0.0137941274642944,-0.065),(0.00295128536224365,
-0.0137941274642944,0.),(0.00295128536224365,-0.00163350427150727,-0.065),
(0.00295128536224365,-0.00163350427150727,0.),(0.00321018934249878,-0.0134989042282104,
-0.065),(0.00321018934249878,-0.0134989042282104,0.),(0.00321018934249878,
-0.00192872762680053,-0.065),(0.00321018934249878,-0.00192872762680053,
0.),(0.00345596957206726,-0.0131926689147949,-0.065),(0.00345596957206726,
-0.0131926689147949,0.),(0.00345596957206726,-0.00223496317863465,-0.065),
(0.00345596957206726,-0.00223496317863465,0.),(0.00368815779685974,-0.0128760042190552,
-0.065),(0.00368815779685974,-0.0128760042190552,0.),(0.00368815779685974,
-0.00255162835121155,-0.065),(0.00368815779685974,-0.00255162835121155,
0.),(0.00390631246566773,-0.0125495128631592,-0.065),(0.00390631246566773,
-0.0125495128631592,0.),(0.00390631246566773,-0.00287811970710754,-0.065),
(0.00390631246566773,-0.00287811970710754,0.),(0.00411001825332641,-0.0122138156890869,
-0.065),(0.00411001825332641,-0.0122138156890869,0.),(0.00411001825332641,
-0.00321381616592407,-0.065),(0.00411001825332641,-0.00321381616592407,
0.),(0.00429888677597046,-0.011869553565979,-0.065),(0.00429888677597046,
-0.011869553565979,0.),(0.00429888677597046,-0.00355807852745056,-0.065),
(0.00429888677597046,-0.00355807852745056,0.),(0.00447255945205689,-0.0115173807144165,
-0.065),(0.00447255945205689,-0.0115173807144165,0.),(0.00447255945205689,
-0.00391025185585022,-0.065),(0.00447255945205689,-0.00391025185585022,
0.),(0.0046307053565979,-0.0111579675674438,-0.065),(0.0046307053565979,
-0.0111579675674438,0.),(0.0046307053565979,-0.00426966524124145,-0.065),
(0.0046307053565979,-0.00426966524124145,0.),(0.00477302312850952,-0.0107919969558716,
-0.065),(0.00477302312850952,-0.0107919969558716,0.),(0.00477302312850952,
-0.0046356348991394,-0.065),(0.00477302312850952,-0.0046356348991394,0.),
(0.00489924192428589,-0.0104201688766479,-0.065),(0.00489924192428589,-0.0104201688766479,
0.),(0.00489924192428589,-0.00500746393203735,-0.065),(0.00489924192428589,
-0.00500746393203735,0.),(0.00500912189483643,-0.0100431880950928,-0.065),
(0.00500912189483643,-0.0100431880950928,0.),(0.00500912189483643,-0.00538444471359253,
-0.065),(0.00500912189483643,-0.00538444471359253,0.),(0.00510245323181152,
-0.00966177272796631,-0.065),(0.00510245323181152,-0.00966177272796631,
0.),(0.00510245323181152,-0.00576585960388184,-0.065),(0.00510245323181152,
-0.00576585960388184,0.),(0.00517905902862549,-0.00927664947509766,-0.065),
(0.00517905902862549,-0.00927664947509766,0.),(0.00517905902862549,-0.00615098237991333,
-0.065),(0.00517905902862549,-0.00615098237991333,0.),(0.00523879337310791,
-0.00888855171203613,-0.065),(0.00523879337310791,-0.00888855171203613,
0.),(0.00523879337310791,-0.00653908014297485,-0.065),(0.00523879337310791,
-0.00653908014297485,0.),(0.00528154134750366,-0.00849821758270264,-0.065),
(0.00528154134750366,-0.00849821758270264,0.),(0.00528154134750366,-0.00692941427230835,
-0.065),(0.00528154134750366,-0.00692941427230835,0.),(0.00530722332000732,
-0.00810639095306396,-0.065),(0.00530722332000732,-0.00810639095306396,
0.),(0.00530722332000732,-0.00732124185562134,-0.065),(0.00530722332000732,
-0.00732124185562134,0.),(0.00531578969955444,-0.00771381616592407,-0.065),
(0.00531578969955444,-0.00771381616592407,0.)));
#217=COORDINATES_LIST('',8,((-0.0299342117309571,-0.0373190803527832,-0.01),
(-0.0299342117309571,-0.0373190803527832,0.),(-0.0299342117309571,0.0226809215545654,
-0.01),(-0.0299342117309571,0.0226809215545654,0.),(0.040065788269043,-0.0373190803527832,
-0.01),(0.040065788269043,-0.0373190803527832,0.),(0.040065788269043,0.0226809215545654,
-0.01),(0.040065788269043,0.0226809215545654,0.)));
#218=TESSELLATED_SHELL('Part 1',(#214),$);
#219=TESSELLATED_SHELL('ConvergentBody',(#215),$);
#220=SHAPE_DEFINITION_REPRESENTATION(#388,#224);
#221=SHAPE_DEFINITION_REPRESENTATION(#389,#225);
#222=SHAPE_DEFINITION_REPRESENTATION(#393,#226);
#223=SHAPE_DEFINITION_REPRESENTATION(#409,#227);
#224=SHAPE_REPRESENTATION('Assembly 1',(#228,#229,#230,#231,#232,#233,#234,
#235,#236,#237,#238,#239,#240,#241,#242,#243,#244,#245,#246,#253,#254,#255,
#256),#377);
#225=SHAPE_REPRESENTATION('Part 1',(#228),#378);
#226=SHAPE_REPRESENTATION('id15',(#228),#379);
#227=SHAPE_REPRESENTATION('Part 1',(#228),#380);
#228=AXIS2_PLACEMENT_3D('',#327,#257,#258);
#229=AXIS2_PLACEMENT_3D('',#328,#259,#260);
#230=AXIS2_PLACEMENT_3D('',#329,#261,#262);
#231=AXIS2_PLACEMENT_3D('',#330,#263,#264);
#232=AXIS2_PLACEMENT_3D('',#331,#265,#266);
#233=AXIS2_PLACEMENT_3D('',#332,#267,#268);
#234=AXIS2_PLACEMENT_3D('',#333,#269,#270);
#235=AXIS2_PLACEMENT_3D('',#334,#271,#272);
#236=AXIS2_PLACEMENT_3D('',#335,#273,#274);
#237=AXIS2_PLACEMENT_3D('',#336,#275,#276);
#238=AXIS2_PLACEMENT_3D('',#337,#277,#278);
#239=AXIS2_PLACEMENT_3D('',#338,#279,#280);
#240=AXIS2_PLACEMENT_3D('',#339,#281,#282);
#241=AXIS2_PLACEMENT_3D('',#340,#283,#284);
#242=AXIS2_PLACEMENT_3D('',#341,#285,#286);
#243=AXIS2_PLACEMENT_3D('',#342,#287,#288);
#244=AXIS2_PLACEMENT_3D('',#343,#289,#290);
#245=AXIS2_PLACEMENT_3D('',#344,#291,#292);
#246=AXIS2_PLACEMENT_3D('',#345,#293,#294);
#247=AXIS2_PLACEMENT_3D('',#346,#295,#296);
#248=AXIS2_PLACEMENT_3D('',#355,#301,#302);
#249=AXIS2_PLACEMENT_3D('',#361,#306,#307);
#250=AXIS2_PLACEMENT_3D('',#367,#311,#312);
#251=AXIS2_PLACEMENT_3D('',#370,#315,#316);
#252=AXIS2_PLACEMENT_3D('',#371,#317,#318);
#253=AXIS2_PLACEMENT_3D('',#372,#319,#320);
#254=AXIS2_PLACEMENT_3D('',#373,#321,#322);
#255=AXIS2_PLACEMENT_3D('',#374,#323,#324);
#256=AXIS2_PLACEMENT_3D('',#375,#325,#326);
#257=DIRECTION('',(0.,0.,1.));
#258=DIRECTION('',(1.,0.,0.));
#259=DIRECTION('',(1.,-8.32667268468867E-16,-8.75811540203011E-47));
#260=DIRECTION('',(-4.62223186652937E-32,-5.55111512312578E-17,-1.));
#261=DIRECTION('',(1.,-8.32667268468867E-16,-8.75811540203011E-47));
#262=DIRECTION('',(-4.62223186652937E-32,-5.55111512312578E-17,-1.));
#263=DIRECTION('',(1.,-8.32667268468867E-16,-8.75811540203011E-47));
#264=DIRECTION('',(-4.62223186652937E-32,-5.55111512312578E-17,-1.));
#265=DIRECTION('',(0.,0.,1.));
#266=DIRECTION('',(1.,0.,0.));
#267=DIRECTION('',(1.,-8.32667268468867E-16,-8.75811540203011E-47));
#268=DIRECTION('',(-4.62223186652937E-32,-5.55111512312578E-17,-1.));
#269=DIRECTION('',(1.,-8.32667268468867E-16,-8.75811540203011E-47));
#270=DIRECTION('',(-4.62223186652937E-32,-5.55111512312578E-17,-1.));
#271=DIRECTION('',(1.,-8.32667268468867E-16,-8.75811540203011E-47));
#272=DIRECTION('',(-4.62223186652937E-32,-5.55111512312578E-17,-1.));
#273=DIRECTION('',(1.,-8.32667268468867E-16,-8.75811540203011E-47));
#274=DIRECTION('',(-4.62223186652937E-32,-5.55111512312578E-17,-1.));
#275=DIRECTION('',(1.,-8.32667268468867E-16,-8.75811540203011E-47));
#276=DIRECTION('',(-4.62223186652937E-32,-5.55111512312578E-17,-1.));
#277=DIRECTION('',(1.,-8.32667268468867E-16,-8.75811540203011E-47));
#278=DIRECTION('',(-4.62223186652937E-32,-5.55111512312578E-17,-1.));
#279=DIRECTION('',(1.,-8.32667268468867E-16,-8.75811540203011E-47));
#280=DIRECTION('',(-4.62223186652937E-32,-5.55111512312578E-17,-1.));
#281=DIRECTION('',(-1.,2.4980018054066E-16,1.86607204171568E-29));
#282=DIRECTION('',(-1.86745871127564E-29,-5.55111512312551E-17,-1.));
#283=DIRECTION('',(-1.,2.91433543964103E-16,7.78075697532443E-32));
#284=DIRECTION('',(-9.39853812860971E-32,-5.55111512312578E-17,-1.));
#285=DIRECTION('',(-1.,4.16333634234434E-16,6.54816181091661E-32));
#286=DIRECTION('',(-8.85927774418129E-32,-5.55111512312578E-17,-1.));
#287=DIRECTION('',(1.,-8.32667268468867E-16,-8.75811540203011E-47));
#288=DIRECTION('',(-4.62223186652937E-32,-5.55111512312578E-17,-1.));
#289=DIRECTION('',(1.,-8.32667268468867E-16,-8.75811540203011E-47));
#290=DIRECTION('',(-4.62223186652937E-32,-5.55111512312578E-17,-1.));
#291=DIRECTION('',(1.,-8.32667268468867E-16,-8.75811540203011E-47));
#292=DIRECTION('',(-4.62223186652937E-32,-5.55111512312578E-17,-1.));
#293=DIRECTION('',(-1.,7.97972798949331E-16,-1.72763619731312E-29));
#294=DIRECTION('',(1.72320655844103E-29,-5.55111512312478E-17,-1.));
#295=DIRECTION('',(0.,1.,0.));
#296=DIRECTION('',(1.,0.,0.));
#297=DIRECTION('',(1.,0.,0.));
#298=DIRECTION('',(0.,0.,-1.));
#299=DIRECTION('',(1.,0.,0.));
#300=DIRECTION('',(0.,0.,-1.));
#301=DIRECTION('',(1.,0.,0.));
#302=DIRECTION('',(0.,-1.,0.));
#303=DIRECTION('',(0.,-1.,0.));
#304=DIRECTION('',(0.,0.,-1.));
#305=DIRECTION('',(0.,-1.,0.));
#306=DIRECTION('',(0.,1.,0.));
#307=DIRECTION('',(1.,0.,0.));
#308=DIRECTION('',(1.,0.,0.));
#309=DIRECTION('',(0.,0.,-1.));
#310=DIRECTION('',(1.,0.,0.));
#311=DIRECTION('',(1.,0.,0.));
#312=DIRECTION('',(0.,-1.,0.));
#313=DIRECTION('',(0.,-1.,0.));
#314=DIRECTION('',(0.,-1.,0.));
#315=DIRECTION('',(0.,0.,1.));
#316=DIRECTION('',(1.,0.,0.));
#317=DIRECTION('',(0.,0.,1.));
#318=DIRECTION('',(1.,0.,0.));
#319=DIRECTION('',(0.,0.,1.));
#320=DIRECTION('',(1.,0.,0.));
#321=DIRECTION('',(1.,-8.32667268468867E-16,-8.75811540203011E-47));
#322=DIRECTION('',(-4.62223186652937E-32,-5.55111512312578E-17,-1.));
#323=DIRECTION('',(1.,-8.32667268468867E-16,-8.75811540203011E-47));
#324=DIRECTION('',(-4.62223186652937E-32,-5.55111512312578E-17,-1.));
#325=DIRECTION('',(1.,-8.32667268468867E-16,-8.75811540203011E-47));
#326=DIRECTION('',(-4.62223186652937E-32,-5.55111512312578E-17,-1.));
#327=CARTESIAN_POINT('',(0.,0.,0.));
#328=CARTESIAN_POINT('',(-0.189566843794594,0.113965725633479,-0.00471903707096083));
#329=CARTESIAN_POINT('',(-0.340270217251952,0.114285364397359,-0.00191847246797043));
#330=CARTESIAN_POINT('',(-0.264574764832148,0.0651690565278055,-0.00399713141420193));
#331=CARTESIAN_POINT('',(-0.14875958333984,0.0384293440406055,-0.000616175876985086));
#332=CARTESIAN_POINT('',(-0.338443577300043,0.0661906483090716,-0.00178900579274845));
#333=CARTESIAN_POINT('',(-0.188126335425829,0.0893862236522833,-0.00557941754163217));
#334=CARTESIAN_POINT('',(-0.412832712385044,0.0906984896106878,-0.00335696482291474));
#335=CARTESIAN_POINT('',(-0.186733726669817,0.0419853310227159,-0.00484950481075957));
#336=CARTESIAN_POINT('',(-0.264833929632685,0.0910627763946774,-0.00247852901222011));
#337=CARTESIAN_POINT('',(-0.264175670723511,0.0413178519053618,-0.00291702136716442));
#338=CARTESIAN_POINT('',(-0.187514071705398,0.0642710913210875,-0.00534020635328395));
#339=CARTESIAN_POINT('',(-0.328382237330237,0.00303772849480155,-0.000779093615210535));
#340=CARTESIAN_POINT('',(-0.402404145696511,0.00395800824502953,-0.000909561355009281));
#341=CARTESIAN_POINT('',(-0.250939934606744,0.00326731421037117,0.000351567309007484));
#342=CARTESIAN_POINT('',(-0.339978282577499,0.0909945466389182,-0.00207160153663502));
#343=CARTESIAN_POINT('',(-0.412316011723937,0.0423594640278025,-0.0016394740858819));
#344=CARTESIAN_POINT('',(-0.265376089318703,0.113728540467215,-0.0043316580808847));
#345=CARTESIAN_POINT('',(-0.47713531137768,0.00419300656022968,-0.00140026289753366));
#346=CARTESIAN_POINT('',(0.0173848704434932,0.0310714340769539,0.001));
#347=CARTESIAN_POINT('',(0.0173848704434932,0.0310714340769539,0.));
#348=CARTESIAN_POINT('',(-0.173115129556507,0.0310714340769539,0.));
#349=CARTESIAN_POINT('',(0.207884870443493,0.0310714340769539,0.));
#350=CARTESIAN_POINT('',(-0.173115129556507,0.0310714340769539,0.001));
#351=CARTESIAN_POINT('',(-0.173115129556507,0.0310714340769539,0.001));
#352=CARTESIAN_POINT('',(0.0173848704434932,0.0310714340769539,0.001));
#353=CARTESIAN_POINT('',(0.207884870443493,0.0310714340769539,0.001));
#354=CARTESIAN_POINT('',(0.207884870443493,0.0310714340769539,0.001));
#355=CARTESIAN_POINT('',(-0.173115129556507,-0.032428565923046,0.001));
#356=CARTESIAN_POINT('',(-0.173115129556507,-0.032428565923046,0.));
#357=CARTESIAN_POINT('',(-0.173115129556507,-0.095928565923046,0.));
#358=CARTESIAN_POINT('',(-0.173115129556507,-0.095928565923046,0.001));
#359=CARTESIAN_POINT('',(-0.173115129556507,-0.095928565923046,0.001));
#360=CARTESIAN_POINT('',(-0.173115129556507,-0.032428565923046,0.001));
#361=CARTESIAN_POINT('',(0.0173848704434931,-0.095928565923046,0.001));
#362=CARTESIAN_POINT('',(0.0173848704434931,-0.095928565923046,0.));
#363=CARTESIAN_POINT('',(0.207884870443493,-0.095928565923046,0.));
#364=CARTESIAN_POINT('',(0.207884870443493,-0.095928565923046,0.001));
#365=CARTESIAN_POINT('',(0.207884870443493,-0.095928565923046,0.001));
#366=CARTESIAN_POINT('',(0.0173848704434931,-0.095928565923046,0.001));
#367=CARTESIAN_POINT('',(0.207884870443493,-0.032428565923046,0.001));
#368=CARTESIAN_POINT('',(0.207884870443493,-0.032428565923046,0.));
#369=CARTESIAN_POINT('',(0.207884870443493,-0.032428565923046,0.001));
#370=CARTESIAN_POINT('',(0.0173848704434932,-0.032428565923046,0.001));
#371=CARTESIAN_POINT('',(0.0173848704434932,-0.032428565923046,0.));
#372=CARTESIAN_POINT('',(-0.312570991516114,0.092,-0.0136024502571672));
#373=CARTESIAN_POINT('',(-0.413091167774995,0.113566427566274,-0.00358837614674284));
#374=CARTESIAN_POINT('',(-0.337491672436832,0.0413718628204659,-0.00134906233699815));
#375=CARTESIAN_POINT('',(-0.412844027327412,0.0644243225683691,-0.00323707486995225));
#376=MECHANICAL_DESIGN_GEOMETRIC_PRESENTATION_REPRESENTATION('',(#198,#199),
#377);
#377=(
GEOMETRIC_REPRESENTATION_CONTEXT(3)
GLOBAL_UNCERTAINTY_ASSIGNED_CONTEXT((#381))
GLOBAL_UNIT_ASSIGNED_CONTEXT((#387,#386,#385))
REPRESENTATION_CONTEXT('Assembly 1','TOP_LEVEL_ASSEMBLY_PART')
);
#378=(
GEOMETRIC_REPRESENTATION_CONTEXT(3)
GLOBAL_UNCERTAINTY_ASSIGNED_CONTEXT((#382))
GLOBAL_UNIT_ASSIGNED_CONTEXT((#387,#386,#385))
REPRESENTATION_CONTEXT('Part 1','COMPONENT_PART')
);
#379=(
GEOMETRIC_REPRESENTATION_CONTEXT(3)
GLOBAL_UNCERTAINTY_ASSIGNED_CONTEXT((#383))
GLOBAL_UNIT_ASSIGNED_CONTEXT((#387,#386,#385))
REPRESENTATION_CONTEXT('id15','COMPONENT_PART')
);
#380=(
GEOMETRIC_REPRESENTATION_CONTEXT(3)
GLOBAL_UNCERTAINTY_ASSIGNED_CONTEXT((#384))
GLOBAL_UNIT_ASSIGNED_CONTEXT((#387,#386,#385))
REPRESENTATION_CONTEXT('Part 1','COMPONENT_PART')
);
#381=UNCERTAINTY_MEASURE_WITH_UNIT(LENGTH_MEASURE(1.E-8),#387,
'DISTANCE_ACCURACY_VALUE','Maximum Tolerance applied to model');
#382=UNCERTAINTY_MEASURE_WITH_UNIT(LENGTH_MEASURE(1.E-8),#387,
'DISTANCE_ACCURACY_VALUE','Maximum Tolerance applied to model');
#383=UNCERTAINTY_MEASURE_WITH_UNIT(LENGTH_MEASURE(1.E-8),#387,
'DISTANCE_ACCURACY_VALUE','Maximum Tolerance applied to model');
#384=UNCERTAINTY_MEASURE_WITH_UNIT(LENGTH_MEASURE(1.E-8),#387,
'DISTANCE_ACCURACY_VALUE','Maximum Tolerance applied to model');
#385=(
NAMED_UNIT(*)
SI_UNIT($,.STERADIAN.)
SOLID_ANGLE_UNIT()
);
#386=(
NAMED_UNIT(*)
PLANE_ANGLE_UNIT()
SI_UNIT($,.RADIAN.)
);
#387=(
LENGTH_UNIT()
NAMED_UNIT(*)
SI_UNIT($,.METRE.)
);
#388=PRODUCT_DEFINITION_SHAPE('','',#414);
#389=PRODUCT_DEFINITION_SHAPE('','',#415);
#390=PRODUCT_DEFINITION_SHAPE(' ','NAUO PRDDFN',#127);
#391=PRODUCT_DEFINITION_SHAPE(' ','NAUO PRDDFN',#128);
#392=PRODUCT_DEFINITION_SHAPE(' ','NAUO PRDDFN',#129);
#393=PRODUCT_DEFINITION_SHAPE('','',#416);
#394=PRODUCT_DEFINITION_SHAPE(' ','NAUO PRDDFN',#130);
#395=PRODUCT_DEFINITION_SHAPE(' ','NAUO PRDDFN',#131);
#396=PRODUCT_DEFINITION_SHAPE(' ','NAUO PRDDFN',#132);
#397=PRODUCT_DEFINITION_SHAPE(' ','NAUO PRDDFN',#133);
#398=PRODUCT_DEFINITION_SHAPE(' ','NAUO PRDDFN',#134);
#399=PRODUCT_DEFINITION_SHAPE(' ','NAUO PRDDFN',#135);
#400=PRODUCT_DEFINITION_SHAPE(' ','NAUO PRDDFN',#136);
#401=PRODUCT_DEFINITION_SHAPE(' ','NAUO PRDDFN',#137);
#402=PRODUCT_DEFINITION_SHAPE(' ','NAUO PRDDFN',#138);
#403=PRODUCT_DEFINITION_SHAPE(' ','NAUO PRDDFN',#139);
#404=PRODUCT_DEFINITION_SHAPE(' ','NAUO PRDDFN',#140);
#405=PRODUCT_DEFINITION_SHAPE(' ','NAUO PRDDFN',#141);
#406=PRODUCT_DEFINITION_SHAPE(' ','NAUO PRDDFN',#142);
#407=PRODUCT_DEFINITION_SHAPE(' ','NAUO PRDDFN',#143);
#408=PRODUCT_DEFINITION_SHAPE(' ','NAUO PRDDFN',#144);
#409=PRODUCT_DEFINITION_SHAPE('','',#417);
#410=PRODUCT_DEFINITION_SHAPE(' ','NAUO PRDDFN',#145);
#411=PRODUCT_DEFINITION_SHAPE(' ','NAUO PRDDFN',#146);
#412=PRODUCT_DEFINITION_SHAPE(' ','NAUO PRDDFN',#147);
#413=PRODUCT_DEFINITION_SHAPE(' ','NAUO PRDDFN',#148);
#414=PRODUCT_DEFINITION('','',#422,#418);
#415=PRODUCT_DEFINITION('','',#423,#419);
#416=PRODUCT_DEFINITION('','',#424,#420);
#417=PRODUCT_DEFINITION('','',#425,#421);
#418=PRODUCT_DEFINITION_CONTEXT('',#443,'design');
#419=PRODUCT_DEFINITION_CONTEXT('',#443,'design');
#420=PRODUCT_DEFINITION_CONTEXT('',#443,'design');
#421=PRODUCT_DEFINITION_CONTEXT('',#443,'design');
#422=PRODUCT_DEFINITION_FORMATION_WITH_SPECIFIED_SOURCE('','',#430,
 .NOT_KNOWN.);
#423=PRODUCT_DEFINITION_FORMATION_WITH_SPECIFIED_SOURCE('','',#431,
 .NOT_KNOWN.);
#424=PRODUCT_DEFINITION_FORMATION_WITH_SPECIFIED_SOURCE('','',#432,
 .NOT_KNOWN.);
#425=PRODUCT_DEFINITION_FORMATION_WITH_SPECIFIED_SOURCE('','',#433,
 .NOT_KNOWN.);
#426=PRODUCT_RELATED_PRODUCT_CATEGORY('','',(#430));
#427=PRODUCT_RELATED_PRODUCT_CATEGORY('','',(#431));
#428=PRODUCT_RELATED_PRODUCT_CATEGORY('','',(#432));
#429=PRODUCT_RELATED_PRODUCT_CATEGORY('','',(#433));
#430=PRODUCT('Assembly 1','Assembly 1','Assembly 1',(#438));
#431=PRODUCT('Part 1','Part 1','Part 1',(#439));
#432=PRODUCT('id15','id15','id15',(#440));
#433=PRODUCT('Part 1','Part 1','Part 1',(#441));
#434=PRODUCT_CATEGORY('','');
#435=PRODUCT_CATEGORY('','');
#436=PRODUCT_CATEGORY('','');
#437=PRODUCT_CATEGORY('','');
#438=PRODUCT_CONTEXT('',#443,'mechanical');
#439=PRODUCT_CONTEXT('',#443,'mechanical');
#440=PRODUCT_CONTEXT('',#443,'mechanical');
#441=PRODUCT_CONTEXT('',#443,'mechanical');
#442=APPLICATION_PROTOCOL_DEFINITION('international standard',
'ap242_managed_model_based_3d_engineering',2020,#443);
#443=APPLICATION_CONTEXT('managed model based 3d engineering');
ENDSEC;
END-ISO-10303-21;
